<svg width="52" height="67" viewBox="0 0 52 67" fill="none" xmlns="http://www.w3.org/2000/svg">
<path d="M51.99 26C51.99 46.82 28.49 66.1 28.49 66.1C27.12 67.23 24.87 67.23 23.5 66.1C23.5 66.1 0 46.82 0 26C0 11.64 11.64 0 26 0C40.35 0 51.99 11.64 51.99 26Z" fill="#FF6702"/>
<path d="M28.74 25.51C25.34 25.51 22.41 27.57 21.15 30.51L21.14 25.51L13.49 26.27L13.52 29.69L16.25 29.67L16.26 42.14L21.16 42.13L21.15 37.07C22.42 40 25.34 42.05 28.73 42.05C33.3 42.05 37 38.35 37 33.78C37 29.21 33.31 25.51 28.74 25.51ZM28.74 37.99C26.41 37.99 24.53 36.1 24.53 33.78C24.53 31.45 26.42 29.57 28.74 29.57C31.07 29.57 32.95 31.46 32.95 33.78C32.95 36.11 31.07 37.99 28.74 37.99Z" fill="white"/>
<path d="M29.71 41.99C29.71 41.99 31.65 41.63 33.14 40.61C34.21 39.88 35.17 38.79 35.77 37.7C37 35.47 36.6699 32.62 36.6299 32.31C36.4299 30.96 35.61 29.57 35.61 29.57L33.1899 30.93L33.89 24L40.2199 26.77L38.15 28.04C38.15 28.04 38.5 29.39 38.67 30.5C38.84 31.65 39.03 35.88 35.59 39.33C34.43 40.49 33.05 41.34 30.27 41.91C30.14 41.93 29.71 41.99 29.71 41.99Z" fill="#57565B"/>
<path d="M6.07626 16.6636H7.05338L8.75226 20.8118H8.81479L10.5137 16.6636H11.4908V22H10.7247V18.1384H10.6752L9.10142 21.9922H8.46564L6.89183 18.1358H6.84232V22H6.07626V16.6636ZM13.1122 22H12.2575L14.1779 16.6636H15.1081L17.0284 22H16.1738L14.6651 17.6329H14.6234L13.1122 22ZM13.2555 19.9103H16.0279V20.5877H13.2555V19.9103ZM16.8428 16.6636H17.7574L19.1514 19.0895H19.2087L20.6027 16.6636H21.5173L19.5813 19.9051V22H18.7788V19.9051L16.8428 16.6636ZM26.6407 19.3318C26.6407 19.9016 26.5364 20.3914 26.328 20.8014C26.1195 21.2096 25.8338 21.524 25.4707 21.7446C25.1094 21.9635 24.6986 22.073 24.2383 22.073C23.7762 22.073 23.3636 21.9635 23.0006 21.7446C22.6393 21.524 22.3544 21.2088 22.1459 20.7988C21.9375 20.3888 21.8333 19.8998 21.8333 19.3318C21.8333 18.7621 21.9375 18.2731 22.1459 17.8648C22.3544 17.4549 22.6393 17.1405 23.0006 16.9216C23.3636 16.701 23.7762 16.5907 24.2383 16.5907C24.6986 16.5907 25.1094 16.701 25.4707 16.9216C25.8338 17.1405 26.1195 17.4549 26.328 17.8648C26.5364 18.2731 26.6407 18.7621 26.6407 19.3318ZM25.8433 19.3318C25.8433 18.8975 25.773 18.5319 25.6323 18.2348C25.4933 17.9361 25.3022 17.7102 25.059 17.5574C24.8176 17.4028 24.544 17.3255 24.2383 17.3255C23.9308 17.3255 23.6563 17.4028 23.4149 17.5574C23.1734 17.7102 22.9823 17.9361 22.8416 18.2348C22.7027 18.5319 22.6332 18.8975 22.6332 19.3318C22.6332 19.7661 22.7027 20.1326 22.8416 20.4314C22.9823 20.7284 23.1734 20.9543 23.4149 21.1089C23.6563 21.2617 23.9308 21.3382 24.2383 21.3382C24.544 21.3382 24.8176 21.2617 25.059 21.1089C25.3022 20.9543 25.4933 20.7284 25.6323 20.4314C25.773 20.1326 25.8433 19.7661 25.8433 19.3318ZM27.6445 22V16.6636H29.5466C29.96 16.6636 30.3031 16.7349 30.5759 16.8773C30.8503 17.0197 31.0553 17.2169 31.1908 17.4688C31.3263 17.7189 31.394 18.0081 31.394 18.3365C31.394 18.663 31.3254 18.9505 31.1882 19.1989C31.0527 19.4456 30.8477 19.6375 30.5732 19.7748C30.3005 19.912 29.9574 19.9806 29.544 19.9806H28.1031V19.2875H29.4711C29.7316 19.2875 29.9435 19.2502 30.1068 19.1755C30.2719 19.1008 30.3926 18.9922 30.469 18.8498C30.5455 18.7073 30.5837 18.5362 30.5837 18.3365C30.5837 18.135 30.5446 17.9604 30.4664 17.8127C30.39 17.6651 30.2693 17.5522 30.1042 17.474C29.9409 17.3941 29.7264 17.3541 29.4606 17.3541H28.4496V22H27.6445ZM30.2788 19.5924L31.5973 22H30.6801L29.3877 19.5924H30.2788ZM33.1789 16.6636V22H32.3737V16.6636H33.1789ZM37.2619 18.0655C37.2341 17.8188 37.1195 17.6277 36.918 17.4922C36.7165 17.355 36.4629 17.2864 36.1571 17.2864C35.9383 17.2864 35.7489 17.3211 35.5891 17.3906C35.4293 17.4584 35.3051 17.5522 35.2165 17.672C35.1297 17.7901 35.0862 17.9248 35.0862 18.0759C35.0862 18.2027 35.1158 18.3121 35.1748 18.4042C35.2356 18.4963 35.3147 18.5736 35.4119 18.6361C35.5109 18.6969 35.6169 18.7482 35.7298 18.7898C35.8427 18.8298 35.9513 18.8628 36.0555 18.8889L36.5767 19.0244C36.7469 19.066 36.9215 19.1225 37.1004 19.1937C37.2793 19.2649 37.4452 19.3587 37.5981 19.4751C37.7509 19.5915 37.8743 19.7357 37.9681 19.9077C38.0636 20.0796 38.1114 20.2855 38.1114 20.5252C38.1114 20.8275 38.0332 21.0958 37.8769 21.3303C37.7223 21.5649 37.4973 21.7499 37.202 21.8854C36.9084 22.0208 36.5532 22.0886 36.1363 22.0886C35.7368 22.0886 35.3911 22.0252 35.0993 21.8984C34.8074 21.7716 34.579 21.5918 34.414 21.359C34.2489 21.1245 34.1577 20.8466 34.1404 20.5252H34.9481C34.9638 20.718 35.0263 20.8787 35.1357 21.0072C35.2469 21.1341 35.3885 21.2287 35.5605 21.2913C35.7342 21.3521 35.9244 21.3825 36.1311 21.3825C36.3586 21.3825 36.561 21.3469 36.7382 21.2756C36.9171 21.2027 37.0578 21.1019 37.1603 20.9734C37.2628 20.8431 37.3141 20.6911 37.3141 20.5174C37.3141 20.3593 37.2689 20.2299 37.1786 20.1291C37.09 20.0284 36.9692 19.945 36.8164 19.879C36.6652 19.813 36.4941 19.7548 36.3031 19.7044L35.6725 19.5325C35.2452 19.4161 34.9064 19.245 34.6563 19.0191C34.4079 18.7933 34.2837 18.4945 34.2837 18.1228C34.2837 17.8153 34.3671 17.547 34.5338 17.3177C34.7006 17.0884 34.9264 16.9103 35.2113 16.7835C35.4962 16.655 35.8175 16.5907 36.1754 16.5907C36.5367 16.5907 36.8555 16.6541 37.1317 16.7809C37.4096 16.9077 37.6285 17.0823 37.7883 17.3046C37.9481 17.5252 38.0315 17.7789 38.0384 18.0655H37.2619ZM38.8103 17.3567V16.6636H42.9403V17.3567H41.2753V22H40.4727V17.3567H38.8103ZM43.6731 22H42.8185L44.7388 16.6636H45.6691L47.5894 22H46.7348L45.2261 17.6329H45.1844L43.6731 22ZM43.8164 19.9103H46.5889V20.5877H43.8164V19.9103Z" fill="white"/>
</svg>
